<svg width="670" height="421" viewBox="0 0 670 421" fill="none" xmlns="http://www.w3.org/2000/svg">
<g opacity="0.2">
<path d="M208.665 -181V264.389L0 347.933" stroke="#1B6D79" stroke-width="0.292444" stroke-linecap="round" stroke-linejoin="round"/>
<path d="M242.46 -181V264.389L0 385.725" stroke="#1B6D79" stroke-width="0.292444" stroke-linecap="round" stroke-linejoin="round"/>
<path d="M276.256 -181V264.389L0 448.692" stroke="#1B6D79" stroke-width="0.292444" stroke-linecap="round" stroke-linejoin="round"/>
<path d="M310.058 -181V264.389L0.163086 574.415" stroke="#1B6D79" stroke-width="0.292444" stroke-linecap="round" stroke-linejoin="round"/>
<path d="M343.851 -181V264.389L188.77 574.415" stroke="#1B6D79" stroke-width="0.292444" stroke-linecap="round" stroke-linejoin="round"/>
<path d="M377.647 -181V264.389L377.383 574.415" stroke="#1B6D79" stroke-width="0.292444" stroke-linecap="round" stroke-linejoin="round"/>
<path d="M411.446 -181V264.389L565.992 574.415" stroke="#1B6D79" stroke-width="0.292444" stroke-linecap="round" stroke-linejoin="round"/>
<path d="M445.241 -181V264.389L754.601 574.415" stroke="#1B6D79" stroke-width="0.292444" stroke-linecap="round" stroke-linejoin="round"/>
<path d="M479.042 -181V264.388L755.417 448.981" stroke="#1B6D79" stroke-width="0.292444" stroke-linecap="round" stroke-linejoin="round"/>
<path d="M512.836 -181V264.388L755.415 385.886" stroke="#1B6D79" stroke-width="0.292444" stroke-linecap="round" stroke-linejoin="round"/>
<path d="M546.632 -181V264.388L755.414 348.038" stroke="#1B6D79" stroke-width="0.292444" stroke-linecap="round" stroke-linejoin="round"/>
<path d="M580.432 -181V264.388L755.415 322.808" stroke="#1B6D79" stroke-width="0.292444" stroke-linecap="round" stroke-linejoin="round"/>
<path d="M614.228 -181V264.388L755.415 304.79" stroke="#1B6D79" stroke-width="0.292444" stroke-linecap="round" stroke-linejoin="round"/>
<path d="M648.024 -181V264.388L755.416 291.277" stroke="#1B6D79" stroke-width="0.292444" stroke-linecap="round" stroke-linejoin="round"/>
<path d="M0 304.735L141.07 264.389V-181" stroke="#1B6D79" stroke-width="0.292444" stroke-linecap="round" stroke-linejoin="round"/>
<path d="M174.866 -181V264.389L0 322.736" stroke="#1B6D79" stroke-width="0.292444" stroke-linecap="round" stroke-linejoin="round"/>
<path d="M107.275 -181V264.389L0 291.237" stroke="#1B6D79" stroke-width="0.292444" stroke-linecap="round" stroke-linejoin="round"/>
<path d="M73.4767 -181V264.389L0.00195312 280.733" stroke="#1B6D79" stroke-width="0.292444" stroke-linecap="round" stroke-linejoin="round"/>
<path d="M39.6799 -181V264.389L0 272.331" stroke="#1B6D79" stroke-width="0.292444" stroke-linecap="round" stroke-linejoin="round"/>
<path d="M5.88046 -181V264.389L0 265.459" stroke="#1B6D79" stroke-width="0.292444" stroke-linecap="round" stroke-linejoin="round"/>
<path d="M0 230.592H755.415" stroke="#1B6D79" stroke-width="0.292444" stroke-linecap="round" stroke-linejoin="round"/>
<path d="M0 196.794H755.415" stroke="#1B6D79" stroke-width="0.292444" stroke-linecap="round" stroke-linejoin="round"/>
<path d="M0 162.998H755.415" stroke="#1B6D79" stroke-width="0.292444" stroke-linecap="round" stroke-linejoin="round"/>
<path d="M0 129.203H755.415" stroke="#1B6D79" stroke-width="0.292444" stroke-linecap="round" stroke-linejoin="round"/>
<path d="M0 95.4028H755.415" stroke="#1B6D79" stroke-width="0.292444" stroke-linecap="round" stroke-linejoin="round"/>
<path d="M0 61.6073H755.415" stroke="#1B6D79" stroke-width="0.292444" stroke-linecap="round" stroke-linejoin="round"/>
<path d="M0 27.8125H755.415" stroke="#1B6D79" stroke-width="0.292444" stroke-linecap="round" stroke-linejoin="round"/>
<path d="M755.415 413.08H0" stroke="#1B6D79" stroke-width="0.292444" stroke-linecap="round" stroke-linejoin="round"/>
<path d="M755.415 386.956H0" stroke="#1B6D79" stroke-width="0.292444" stroke-linecap="round" stroke-linejoin="round"/>
<path d="M755.415 366.464H0" stroke="#1B6D79" stroke-width="0.292444" stroke-linecap="round" stroke-linejoin="round"/>
<path d="M755.415 349.955H0" stroke="#1B6D79" stroke-width="0.292444" stroke-linecap="round" stroke-linejoin="round"/>
<path d="M755.415 336.372H0" stroke="#1B6D79" stroke-width="0.292444" stroke-linecap="round" stroke-linejoin="round"/>
<path d="M755.415 267.426H0" stroke="#1B6D79" stroke-width="0.292444" stroke-linecap="round" stroke-linejoin="round"/>
<path d="M755.415 264.389H0" stroke="#1B6D79" stroke-width="0.292444" stroke-linecap="round" stroke-linejoin="round"/>
<path d="M755.415 274.398H0" stroke="#1B6D79" stroke-width="0.292444" stroke-linecap="round" stroke-linejoin="round"/>
<path d="M755.415 270.749H0" stroke="#1B6D79" stroke-width="0.292444" stroke-linecap="round" stroke-linejoin="round"/>
<path d="M755.415 307.035H0" stroke="#1B6D79" stroke-width="0.292444" stroke-linecap="round" stroke-linejoin="round"/>
<path d="M755.415 325H0" stroke="#1B6D79" stroke-width="0.292444" stroke-linecap="round" stroke-linejoin="round"/>
<path d="M755.415 282.898H0" stroke="#1B6D79" stroke-width="0.292444" stroke-linecap="round" stroke-linejoin="round"/>
<path d="M755.415 278.428H0" stroke="#1B6D79" stroke-width="0.292444" stroke-linecap="round" stroke-linejoin="round"/>
<path d="M755.415 299.818H0" stroke="#1B6D79" stroke-width="0.292444" stroke-linecap="round" stroke-linejoin="round"/>
<path d="M755.415 293.483H0" stroke="#1B6D79" stroke-width="0.292444" stroke-linecap="round" stroke-linejoin="round"/>
<path d="M755.415 287.885H0" stroke="#1B6D79" stroke-width="0.292444" stroke-linecap="round" stroke-linejoin="round"/>
<path d="M755.415 315.342H0" stroke="#1B6D79" stroke-width="0.292444" stroke-linecap="round" stroke-linejoin="round"/>
</g>
</svg>
