<svg width="37" height="37" viewBox="0 0 37 37" fill="none" xmlns="http://www.w3.org/2000/svg">
<rect width="36.5238" height="36.5238" rx="18.2619" fill="#26A17B"/>
<path fill-rule="evenodd" clip-rule="evenodd" d="M20.6899 19.4311V19.4287C20.5539 19.4385 19.8529 19.4801 18.289 19.4801C17.0403 19.4801 16.1612 19.4434 15.8522 19.4287V19.4324C11.0453 19.2231 7.45748 18.3945 7.45748 17.4032C7.45748 16.4131 11.0453 15.5845 15.8522 15.3716V18.6075C16.1662 18.6295 17.0662 18.6821 18.31 18.6821C19.8022 18.6821 20.5502 18.6209 20.6899 18.6087V15.374C25.4869 15.5857 29.0661 16.4143 29.0661 17.4032C29.0661 18.3945 25.4869 19.2206 20.6899 19.4311ZM20.6899 15.0375V12.1418H27.3834V7.72607H9.15867V12.1418H15.8522V15.0362C10.4123 15.2834 6.32129 16.3507 6.32129 17.6284C6.32129 18.9061 10.4123 19.9721 15.8522 20.2205V29.4999H20.6899V20.2181C26.1211 19.9709 30.2022 18.9049 30.2022 17.6284C30.2022 16.3519 26.1211 15.2859 20.6899 15.0375Z" fill="white"/>
</svg>
