<svg width="14" height="14" viewBox="0 0 14 14" fill="none" xmlns="http://www.w3.org/2000/svg">
<path d="M5.44237 2.05784L9.60909 6.22456C9.66736 6.28262 9.71359 6.35162 9.74514 6.42759C9.77668 6.50356 9.79292 6.58501 9.79292 6.66727C9.79292 6.74953 9.77668 6.83098 9.74514 6.90695C9.71359 6.98293 9.66736 7.05192 9.60909 7.10999L5.44237 11.2767C5.32496 11.3941 5.16571 11.4601 4.99966 11.4601C4.83361 11.4601 4.67436 11.3941 4.55695 11.2767C4.43953 11.1593 4.37357 11 4.37357 10.834C4.37357 10.6679 4.43953 10.5087 4.55695 10.3913L8.28147 6.66675L4.55642 2.94223C4.43901 2.82481 4.37305 2.66557 4.37305 2.49952C4.37305 2.33347 4.43901 2.17422 4.55642 2.0568C4.67384 1.93939 4.83309 1.87342 4.99914 1.87342C5.16519 1.87342 5.32444 1.93939 5.44185 2.0568L5.44237 2.05784Z" fill="white"/>
</svg>
