<svg width="24" height="25" viewBox="0 0 24 25" fill="none" xmlns="http://www.w3.org/2000/svg">
<path d="M3.7041 14.8706L11.2041 7.37065C11.3086 7.26577 11.4328 7.18255 11.5696 7.12577C11.7063 7.06899 11.8529 7.03976 12.001 7.03976C12.149 7.03976 12.2957 7.06899 12.4324 7.12577C12.5691 7.18255 12.6933 7.26577 12.7979 7.37065L20.2979 14.8706C20.5092 15.082 20.6279 15.3686 20.6279 15.6675C20.6279 15.9664 20.5092 16.2531 20.2979 16.4644C20.0865 16.6757 19.7999 16.7945 19.501 16.7945C19.2021 16.7945 18.9154 16.6757 18.7041 16.4644L12 9.76033L5.29598 16.4653C5.08463 16.6767 4.79799 16.7954 4.4991 16.7954C4.20022 16.7954 3.91357 16.6767 3.70223 16.4653C3.49088 16.254 3.37215 15.9673 3.37215 15.6685C3.37215 15.3696 3.49088 15.0829 3.70223 14.8716L3.7041 14.8706Z" fill="white"/>
</svg>
