<svg width="20" height="20" viewBox="0 0 20 20" fill="none" xmlns="http://www.w3.org/2000/svg">
<path opacity="0.2" d="M18.75 8.75V11.25C18.75 11.5815 18.6183 11.8995 18.3839 12.1339C18.1495 12.3683 17.8315 12.5 17.5 12.5H16.875L15.4609 16.4602C15.4176 16.5816 15.3377 16.6867 15.2322 16.761C15.1267 16.8353 15.0009 16.8751 14.8719 16.875H13.8781C13.7491 16.8751 13.6233 16.8353 13.5178 16.761C13.4123 16.6867 13.3324 16.5816 13.2891 16.4602L12.9914 15.625H7.6336L7.33594 16.4602C7.29257 16.5816 7.21267 16.6867 7.1072 16.761C7.00174 16.8353 6.87587 16.8751 6.74688 16.875H5.75313C5.62413 16.8751 5.49827 16.8353 5.39281 16.761C5.28734 16.6867 5.20744 16.5816 5.16407 16.4602L4.14063 13.5938C3.08387 12.4431 2.49826 10.9373 2.5 9.375C2.5 7.7174 3.15848 6.12769 4.33059 4.95558C5.50269 3.78348 7.0924 3.125 8.75 3.125H11.25C12.4696 3.12465 13.6627 3.48113 14.6822 4.15052C15.7016 4.8199 16.503 5.77294 16.9875 6.89219C17.0732 7.09085 17.1488 7.29371 17.2141 7.5H17.5C17.8315 7.5 18.1495 7.6317 18.3839 7.86612C18.6183 8.10054 18.75 8.41848 18.75 8.75Z" fill="url(#paint0_linear_68_3794)"/>
<path d="M15 9.0625C15 9.24792 14.945 9.42918 14.842 9.58335C14.739 9.73752 14.5926 9.85768 14.4213 9.92864C14.25 9.99959 14.0615 10.0182 13.8796 9.98199C13.6977 9.94581 13.5307 9.85652 13.3996 9.72541C13.2685 9.5943 13.1792 9.42725 13.143 9.2454C13.1068 9.06354 13.1254 8.87504 13.1964 8.70373C13.2673 8.53243 13.3875 8.38601 13.5417 8.283C13.6958 8.17998 13.8771 8.125 14.0625 8.125C14.3111 8.125 14.5496 8.22377 14.7254 8.39959C14.9012 8.5754 15 8.81386 15 9.0625ZM11.875 5H8.75C8.58424 5 8.42527 5.06585 8.30806 5.18306C8.19085 5.30027 8.125 5.45924 8.125 5.625C8.125 5.79076 8.19085 5.94973 8.30806 6.06694C8.42527 6.18415 8.58424 6.25 8.75 6.25H11.875C12.0408 6.25 12.1997 6.18415 12.3169 6.06694C12.4342 5.94973 12.5 5.79076 12.5 5.625C12.5 5.45924 12.4342 5.30027 12.3169 5.18306C12.1997 5.06585 12.0408 5 11.875 5ZM19.375 8.75V11.25C19.375 11.7473 19.1775 12.2242 18.8258 12.5758C18.4742 12.9275 17.9973 13.125 17.5 13.125H17.3156L16.0492 16.6703C15.9625 16.9132 15.8028 17.1232 15.5921 17.2718C15.3813 17.4203 15.1297 17.5 14.8719 17.5H13.8781C13.6203 17.5 13.3687 17.4203 13.1579 17.2718C12.9472 17.1232 12.7875 16.9132 12.7008 16.6703L12.5508 16.25H8.07422L7.92422 16.6703C7.83752 16.9132 7.67783 17.1232 7.46706 17.2718C7.25628 17.4203 7.00473 17.5 6.74688 17.5H5.75313C5.49527 17.5 5.24372 17.4203 5.03294 17.2718C4.82217 17.1232 4.66249 16.9132 4.57578 16.6703L3.59375 13.9234C2.65952 12.8661 2.07454 11.5461 1.91875 10.1437C1.71705 10.2497 1.54814 10.4087 1.43027 10.6037C1.31241 10.7987 1.25007 11.0222 1.25 11.25C1.25 11.4158 1.18415 11.5747 1.06694 11.6919C0.949732 11.8092 0.79076 11.875 0.625 11.875C0.45924 11.875 0.300269 11.8092 0.183058 11.6919C0.065848 11.5747 0 11.4158 0 11.25C0.000954983 10.6926 0.188143 10.1516 0.531824 9.71276C0.875504 9.27396 1.35597 8.96259 1.89688 8.82812C2.0365 7.10572 2.81877 5.49882 4.08835 4.3265C5.35792 3.15418 7.02195 2.50219 8.75 2.5H16.875C17.0408 2.5 17.1997 2.56585 17.3169 2.68306C17.4342 2.80027 17.5 2.95924 17.5 3.125C17.5 3.29076 17.4342 3.44973 17.3169 3.56694C17.1997 3.68415 17.0408 3.75 16.875 3.75H15.2039C16.2411 4.47773 17.0569 5.47815 17.5609 6.64062C17.5945 6.71875 17.6273 6.79688 17.6586 6.875C18.1279 6.91483 18.565 7.12983 18.883 7.47724C19.2011 7.82464 19.3767 8.27902 19.375 8.75ZM18.125 8.75C18.125 8.58424 18.0592 8.42527 17.9419 8.30806C17.8247 8.19085 17.6658 8.125 17.5 8.125H17.2141C17.081 8.12514 16.9513 8.08278 16.8439 8.00409C16.7366 7.92539 16.6571 7.81448 16.6172 7.6875C16.2591 6.54479 15.5452 5.54642 14.5797 4.83808C13.6141 4.12974 12.4475 3.7485 11.25 3.75H8.75C7.65837 3.74994 6.59031 4.06752 5.67607 4.66402C4.76182 5.26051 4.04089 6.11014 3.60119 7.10929C3.16149 8.10845 3.02203 9.21396 3.19979 10.291C3.37756 11.3681 3.86489 12.3701 4.60234 13.175C4.65874 13.2363 4.7023 13.3083 4.73047 13.3867L5.75313 16.25H6.74688L7.04531 15.4148C7.08864 15.2935 7.16842 15.1885 7.27373 15.1142C7.37904 15.04 7.50473 15.0001 7.63359 15H12.9914C13.1203 15.0001 13.246 15.04 13.3513 15.1142C13.4566 15.1885 13.5364 15.2935 13.5797 15.4148L13.8781 16.25H14.8719L16.2867 12.2898C16.33 12.1685 16.4098 12.0635 16.5151 11.9892C16.6205 11.915 16.7461 11.8751 16.875 11.875H17.5C17.6658 11.875 17.8247 11.8092 17.9419 11.6919C18.0592 11.5747 18.125 11.4158 18.125 11.25V8.75Z" fill="url(#paint1_linear_68_3794)"/>
<defs>
<linearGradient id="paint0_linear_68_3794" x1="10.625" y1="3.125" x2="10.625" y2="16.875" gradientUnits="userSpaceOnUse">
<stop stop-color="#E083FF"/>
<stop offset="1" stop-color="#74B0E3"/>
</linearGradient>
<linearGradient id="paint1_linear_68_3794" x1="9.68751" y1="2.5" x2="9.68751" y2="17.5" gradientUnits="userSpaceOnUse">
<stop stop-color="#E083FF"/>
<stop offset="1" stop-color="#74B0E3"/>
</linearGradient>
</defs>
</svg>
