<svg xmlns="http://www.w3.org/2000/svg" width="20" height="20" viewBox="0 0 20 20" fill="none">
<path d="M16.8584 9.23205C16.8347 9.13187 16.7867 9.0391 16.7185 8.96196C16.6504 8.88481 16.5642 8.8257 16.4678 8.78986L11.967 7.10158L13.1123 1.37267C13.1382 1.23956 13.1202 1.10163 13.0608 0.979686C13.0015 0.857744 12.9041 0.758408 12.7834 0.69667C12.6626 0.634931 12.5251 0.61414 12.3915 0.637432C12.2579 0.660725 12.1355 0.726837 12.0427 0.825794L3.29275 10.2008C3.22168 10.2757 3.17027 10.367 3.14311 10.4666C3.11595 10.5662 3.11389 10.671 3.1371 10.7716C3.16031 10.8722 3.20808 10.9654 3.27614 11.0431C3.3442 11.1207 3.43043 11.1803 3.52713 11.2164L8.02947 12.9047L6.88728 18.6274C6.86135 18.7605 6.87941 18.8984 6.93874 19.0203C6.99808 19.1423 7.09547 19.2416 7.21621 19.3034C7.33695 19.3651 7.4745 19.3859 7.6081 19.3626C7.74169 19.3393 7.86409 19.2732 7.95681 19.1742L16.7068 9.79923C16.7766 9.72433 16.8269 9.63344 16.8533 9.53454C16.8798 9.43564 16.8815 9.33177 16.8584 9.23205ZM8.54431 16.7188L9.36228 12.6266C9.39156 12.4814 9.36836 12.3306 9.29682 12.201C9.22529 12.0714 9.11005 11.9714 8.97166 11.9188L4.84353 10.368L11.4545 3.28517L10.6373 7.37736C10.608 7.52249 10.6312 7.6733 10.7027 7.80293C10.7743 7.93255 10.8895 8.03257 11.0279 8.08517L15.1529 9.63204L8.54431 16.7188Z" fill="#1DD3CC"/>
</svg>